<svg version="1.2" xmlns="http://www.w3.org/2000/svg" viewBox="0 0 795 517" width="795" height="517">
	<title>result-svg</title>
	<defs>
		<clipPath clipPathUnits="userSpaceOnUse" id="cp1">
			<path d="m631.88 281.71h-475.88v-281.71h475.88z"/>
		</clipPath>
		<linearGradient id="g1" x1="358.8" y1="157.1" x2="329.9" y2="217" gradientUnits="userSpaceOnUse">
			<stop offset="0" stop-color="#ffbeb6"/>
			<stop offset=".6" stop-color="#f7ada7"/>
			<stop offset="1" stop-color="#f2a19c"/>
		</linearGradient>
		<linearGradient id="g2" x1="406.6" y1="179.5" x2="458.7" y2="179.5" gradientUnits="userSpaceOnUse">
			<stop offset="0" stop-color="#ffbeb6"/>
			<stop offset="1" stop-color="#f2a19c"/>
		</linearGradient>
		<linearGradient id="g3" x1="456.2" y1="473.7" x2="566.1" y2="575.1" gradientUnits="userSpaceOnUse">
			<stop offset="0" stop-color="#ac95f3"/>
			<stop offset="1" stop-color="#36207a"/>
		</linearGradient>
		<linearGradient id="g4" x1="400.8" y1="375.6" x2="564.1" y2="375.6" gradientUnits="userSpaceOnUse">
			<stop offset="0" stop-color="#4527a0"/>
			<stop offset=".4" stop-color="#4527a0"/>
			<stop offset="1" stop-color="#151a4f"/>
		</linearGradient>
		<linearGradient id="g5" x1="479.9" y1="168.7" x2="510.4" y2="229.7" gradientUnits="userSpaceOnUse">
			<stop offset="0" stop-color="#ac95f3"/>
			<stop offset=".7" stop-color="#896dde"/>
			<stop offset="1" stop-color="#735ac0"/>
		</linearGradient>
		<linearGradient id="g6" x1="346.9" y1="91.5" x2="457.9" y2="229.5" gradientUnits="userSpaceOnUse">
			<stop offset="0" stop-color="#4527a0"/>
			<stop offset="1" stop-color="#4527a0"/>
		</linearGradient>
		<linearGradient id="g7" x1="366.8" y1="219.1" x2="460.9" y2="219.1" gradientUnits="userSpaceOnUse">
			<stop offset="0" stop-color="#ffbeb6"/>
			<stop offset="1" stop-color="#f2a19c"/>
		</linearGradient>
		<linearGradient id="g8" x1="567.7" y1="206.3" x2="505.2" y2="317.4" gradientUnits="userSpaceOnUse">
			<stop offset="0" stop-color="#ac95f3"/>
			<stop offset=".7" stop-color="#765fbb"/>
			<stop offset="1" stop-color="#7f67c9"/>
		</linearGradient>
		<linearGradient id="g9" x1="528.4" y1="161.6" x2="544.6" y2="161.6" gradientUnits="userSpaceOnUse">
			<stop offset="0" stop-color="#ffbeb6"/>
			<stop offset="1" stop-color="#f2a19c"/>
		</linearGradient>
		<linearGradient id="g10" x1="236.6" y1="214.9" x2="331.9" y2="214.9" gradientUnits="userSpaceOnUse">
			<stop offset="0" stop-color="#4527a0"/>
			<stop offset=".4" stop-color="#341b7e"/>
			<stop offset="1" stop-color="#230d66"/>
		</linearGradient>
		<linearGradient id="g11" x1="354.9" y1="202.7" x2="323" y2="235.7" gradientUnits="userSpaceOnUse">
			<stop offset="0" stop-color="#ffbeb6"/>
			<stop offset="1" stop-color="#f2a19c"/>
		</linearGradient>
		<linearGradient id="g12" x1="253.9" y1="198.8" x2="258.8" y2="167.3" gradientUnits="userSpaceOnUse">
			<stop offset="0" stop-color="#ffbeb6"/>
			<stop offset="1" stop-color="#f2a19c"/>
		</linearGradient>
		<linearGradient id="g13" x1="223.1" y1="123.8" x2="243.6" y2="123.8" gradientUnits="userSpaceOnUse">
			<stop offset="0" stop-color="#23286b"/>
			<stop offset=".4" stop-color="#1e2361"/>
			<stop offset="1" stop-color="#151a4f"/>
		</linearGradient>
		<linearGradient id="g14" x1="325.1" y1="501.3" x2="247.9" y2="501.3" gradientUnits="userSpaceOnUse">
			<stop offset="0" stop-color="#4527a0"/>
			<stop offset=".5" stop-color="#391f87"/>
			<stop offset="1" stop-color="#190c41"/>
		</linearGradient>
		<linearGradient id="g15" x1="327.4" y1="469.9" x2="264.6" y2="380.4" gradientUnits="userSpaceOnUse">
			<stop offset="0" stop-color="#ac95f3"/>
			<stop offset=".7" stop-color="#7c5dd9"/>
			<stop offset="1" stop-color="#593ab7"/>
		</linearGradient>
		<linearGradient id="g16" x1="236.8" y1="350" x2="218.8" y2="197.5" gradientUnits="userSpaceOnUse">
			<stop offset="0" stop-color="#9679ed"/>
			<stop offset=".7" stop-color="#7a53f0"/>
			<stop offset="1" stop-color="#21124f"/>
		</linearGradient>
		<linearGradient id="g17" x1="213.3" y1="208.2" x2="336.6" y2="333.4" gradientUnits="userSpaceOnUse">
			<stop offset="0" stop-color="#4527a0"/>
			<stop offset=".4" stop-color="#311c72"/>
			<stop offset="1" stop-color="#2c1574"/>
		</linearGradient>
		<linearGradient id="g18" x1="282.1" y1="233.2" x2="410" y2="300.8" gradientUnits="userSpaceOnUse">
			<stop offset="0" stop-color="#4527a0"/>
			<stop offset=".4" stop-color="#311b74"/>
			<stop offset="1" stop-color="#151a4f"/>
		</linearGradient>
	</defs>
	<style>
		.s0 { fill: #eeeeee } 
		.s1 { fill: url(#g1) } 
		.s2 { fill: url(#g2) } 
		.s3 { fill: url(#g3) } 
		.s4 { fill: #ac95f3 } 
		.s5 { fill: url(#g4) } 
		.s6 { fill: #3f2298 } 
		.s7 { fill: url(#g5) } 
		.s8 { fill: url(#g6) } 
		.s9 { fill: url(#g7) } 
		.s10 { opacity: .9;fill: #ffffff } 
		.s11 { fill: url(#g8) } 
		.s12 { fill: url(#g9) } 
		.s13 { fill: #ffbeb6 } 
		.s14 { fill: #1c2868 } 
		.s15 { fill: #23286b } 
		.s16 { fill: url(#g10) } 
		.s17 { fill: url(#g11) } 
		.s18 { fill: url(#g12) } 
		.s19 { fill: url(#g13) } 
		.s20 { fill: url(#g14) } 
		.s21 { fill: #4527a0 } 
		.s22 { fill: url(#g15) } 
		.s23 { fill: url(#g16) } 
		.s24 { fill: url(#g17) } 
		.s25 { fill: url(#g18) } 
	</style>
	<path id="Layer" class="s0" d="m631.9 281.7h-475.9v-281.7h475.9z"/>
	<g id="Clip-Path" clip-path="url(#cp1)">
		<g id="Layer">
		</g>
	</g>
	<path id="Layer" class="s1" d="m321.9 208.6c0 0 14-7.7 15-18.5 1.1-10.8 1-9.1 0-13.7-1-4.6 1-5.5 3.8-2.1 2.8 3.3 0.3 8.8 2.3 8.5 2.1-0.4 4.5-0.3 7.2-7.8 2.6-7.5 4.3-9.9 6.5-8.1 2.2 1.7 8 11.2 1.8 20.1-6.2 8.9-9 4.9-14.3 12.2-5.3 7.3-8.8 20.3-13.8 26.2z"/>
	<path id="Layer" class="s2" d="m454.5 207.5c-7-4.8-14.7-17.7-22.6-24-7.9-6.3-9.7-1.2-19-8.8-9.3-7.7-6-19.7-4.1-22.2 1.9-2.5 4.4-0.5 9.5 6.8 5.1 7.2 7.7 6.4 10 6.2 2.3-0.2-2.1-5.4-0.1-9.8 2-4.5 4.5-4.2 4.8 1.1 0.3 5.2-0.3 3.5 4 14.8 4.4 11.3 21.7 15.3 21.7 15.3z"/>
	<path id="Layer" class="s3" d="m521.4 481.8l12.5 34.7h-87.8c0 0 4.5-8.7 19.5-15.1 15-6.4 29-19.6 29-19.6z"/>
	<path id="Layer" class="s4" d="m584.2 481.8l12.4 34.7h-87.8c0 0 4.5-8.7 19.5-15.1 15-6.5 29-19.6 29-19.6z"/>
	<path id="Layer" class="s5" d="m558 280.8c-10.6 46.5-11.4 39.9-9.7 72.5 1.6 32.6-3.7 21.6-5.3 55.8-1.7 34.2 0.4 51.1-21.6 72.7h-26.8c0 0-2.2-104.3-1.7-133.8 0.3-20.6 6.8-41.5 10.6-58.6l4.1-17.1c3.9-0.2 7.8-1.2 11.4-2.9 9.3 3.1 25.7 3.8 40.5 3.6q-0.6 3.8-1.5 7.8z"/>
	<path id="Layer" class="s6" d="m584.2 481.8h-26.9c0 0-42.3-101.9-44.4-124.1-1.6-17.6-0.9-37.9 0.9-56.3l3.7-32.5c12.2 4.8 39.6 4.5 57.4 3.7-0.5 10.1-2.4 20-5.6 29.6-16.9 50.7-5.3 48.3 0.2 63.6 5.5 15.3 8.4 24.7 7.2 39.2-1.3 14.5 5 10.6 8.4 29.4 3.4 18.7-0.9 47.4-0.9 47.4z"/>
	<path id="Layer" class="s7" d="m544.6 163.8c0 0-5.6 29.6-11.8 49.2-6.2 19.7-35.6 18.6-42.1 16.9-6.5-1.7-13.7 0.4-28.3 1.2-14.6 0.9-21.7-6.7-21.7-6.7l15.2-38.6c0 0 21.6 11.5 45.5 5.6 23.8-5.8 27-23 27-23 9.3 2.2 16.2-4.6 16.2-4.6z"/>
	<path id="Layer" fill-rule="evenodd" class="s8" d="m413.9 159.5v76.5h-53v-76.5h-50.9l78.4-79.5 78.4 79.5z"/>
	<path id="Layer" class="s9" d="m459.6 225l-12.9 23.1c0 0-22.3-17.5-30.9-24.2-8.6-6.7-8.8-2.7-23.3-2.9-14.6-0.2-26.7-9-25.7-9 21.6-0.1 34.7 0 34.7 0 5.3-3.6-2.7-8.4-7.7-13.4-5-4.9-3.1-10.1-0.6-8 2.5 2.1 7.3 4.8 14 8.2 6.7 3.5 5.9 6.4 11.3 11.1 5.3 4.8 42.4 10.8 42.4 10.8"/>
	<path id="Layer" fill-rule="evenodd" class="s10" d="m544.5 276.3c-0.2 0-0.3 0-0.3-0.1-0.1-0.1 0-0.3 0.1-0.3 0.1-0.1 0.2 0 0.3 0.1 0 0.1 0 0.2-0.1 0.3zm-21.3-0.4c0.1 0.1 0.2 0.2 0.1 0.3 0 0.1-0.1 0.2-0.2 0.1q-0.1 0-0.1 0c-0.1 0-0.1-0.1 0-0.2 0-0.1 0.1-0.2 0.2-0.2q0 0 0 0zm10.8-0.3c0 0.1-0.1 0.2-0.2 0.2-0.1 0-0.2-0.1-0.2-0.2 0-0.2 0.1-0.3 0.2-0.3 0.1 0 0.2 0.1 0.2 0.3zm37.9 1.4c0.2 0.1 0.2 0.4 0 0.5q0 0 0 0c-0.1 0.2-0.4 0.2-0.5 0.1q0 0 0 0c-0.2-0.2-0.2-0.4-0.1-0.6q0 0 0 0c0.2-0.2 0.4-0.2 0.6 0zm-28.7 24.5c0 0.2-0.1 0.4-0.3 0.4q-0.1 0-0.1 0c-0.2 0-0.4-0.2-0.4-0.4 0-0.2 0.2-0.4 0.4-0.4 0.2 0 0.4 0.1 0.4 0.4zm-0.6-9.6c0 0.3-0.2 0.4-0.4 0.5-0.2 0-0.4-0.2-0.4-0.4 0-0.2 0.1-0.4 0.3-0.4 0.3 0 0.4 0.1 0.5 0.3zm-0.7-9.5q0 0 0 0c0 0.2-0.2 0.4-0.4 0.4q0 0 0 0c-0.2 0-0.4-0.1-0.4-0.3 0-0.3 0.1-0.5 0.4-0.5 0.2 0 0.4 0.2 0.4 0.4zm19.5 9.7q0 0 0 0c-0.2 0.1-0.5 0-0.5-0.2-0.1-0.2-0.1-0.4 0.1-0.5 0.2-0.1 0.5 0 0.6 0.2 0.1 0.2 0 0.4-0.2 0.5zm-4.3-8.5q0 0 0 0c-0.2 0.1-0.4 0-0.5-0.2-0.1-0.2 0-0.5 0.2-0.6 0.2-0.1 0.4 0 0.5 0.2 0.1 0.2 0 0.5-0.2 0.6zm-4.2-8.6c-0.2 0.1-0.5 0-0.6-0.2-0.1-0.2 0-0.4 0.2-0.5 0.2-0.1 0.4 0 0.5 0.2 0.1 0.2 0.1 0.4-0.1 0.5zm-27.8 19.8c0 0.2-0.3 0.3-0.5 0.2q0 0 0 0c-0.2-0.1-0.3-0.3-0.2-0.5q0 0 0 0c0.1-0.2 0.3-0.3 0.5-0.2 0.2 0 0.3 0.2 0.2 0.5zm2.8-9.6c0.2 0.1 0.3 0.3 0.3 0.5-0.1 0.2-0.3 0.3-0.5 0.2-0.3 0-0.4-0.3-0.3-0.5q0 0 0 0c0.1-0.2 0.3-0.3 0.5-0.2q0 0 0 0zm3.3-8.6c-0.1 0.2-0.3 0.3-0.5 0.3q0 0 0 0c-0.2-0.1-0.3-0.3-0.3-0.5 0.1-0.2 0.3-0.3 0.5-0.3 0.2 0.1 0.4 0.3 0.3 0.5zm38.5 11.1c-0.2 0.1-0.4 0.1-0.5-0.1-0.1-0.2-0.1-0.4 0.1-0.5 0.2-0.1 0.4 0 0.5 0.1 0.1 0.2 0 0.4-0.1 0.5zm-4.4-7.7c0.1 0.2 0 0.4-0.2 0.5-0.1 0.1-0.3 0-0.4-0.1-0.1-0.2-0.1-0.4 0.1-0.5 0.1-0.1 0.4-0.1 0.5 0.1q0 0 0 0zm-30.9 13.4c0 0.2-0.2 0.3-0.4 0.3q0 0 0 0c-0.2-0.1-0.3-0.3-0.3-0.4q0-0.1 0-0.1c0.1-0.1 0.3-0.3 0.4-0.2 0.2 0 0.3 0.2 0.3 0.4zm1.9-8.3c0 0.2-0.2 0.3-0.4 0.3q0 0 0 0c-0.2-0.1-0.3-0.3-0.3-0.5q0 0 0 0c0.1-0.2 0.3-0.3 0.5-0.2 0.2 0 0.3 0.2 0.2 0.4zm1.9-8.3q0 0 0 0c0 0.2-0.2 0.3-0.4 0.2q0 0 0 0c-0.2 0-0.3-0.2-0.2-0.4q0 0 0 0c0-0.2 0.2-0.3 0.4-0.2 0.2 0 0.3 0.2 0.2 0.4zm14.5 12.7c0 0.2-0.1 0.4-0.3 0.4-0.2 0-0.4-0.1-0.4-0.3 0-0.2 0.1-0.3 0.3-0.4 0.2 0 0.4 0.1 0.4 0.3zm-1.4-8.4q0 0 0 0c0 0.2-0.1 0.4-0.3 0.4-0.2 0-0.4-0.1-0.4-0.3 0-0.2 0.1-0.4 0.3-0.4 0.2 0 0.4 0.1 0.4 0.3zm-30.6 1.1c0.2 0.1 0.2 0.3 0.1 0.5q0 0 0 0c-0.2 0.2-0.4 0.2-0.5 0.1q0 0 0 0c-0.2-0.2-0.2-0.4-0.1-0.5 0.1-0.2 0.3-0.2 0.5-0.1q0 0 0 0zm5-6.9c0.1 0.1 0.1 0.3 0 0.4-0.1 0.2-0.3 0.2-0.5 0.1-0.1-0.1-0.2-0.3-0.1-0.4 0.1-0.2 0.4-0.3 0.5-0.2q0 0.1 0.1 0.1zm23.6-1.5c0 0.2-0.1 0.2-0.2 0.2-0.1 0-0.2-0.1-0.2-0.2 0-0.1 0.1-0.2 0.2-0.2 0.2 0 0.2 0.1 0.2 0.2zm-0.5 1.6c0.2 0 0.2 0.1 0.2 0.3q0 0 0 0c0 0.1-0.2 0.2-0.3 0.1-0.1 0-0.2-0.1-0.2-0.3 0.1-0.1 0.2-0.2 0.3-0.1zm21 21.4c0.1 0.2-0.1 0.4-0.3 0.4-0.2 0.1-0.4-0.1-0.5-0.3 0-0.2 0.2-0.4 0.4-0.5 0.2 0 0.4 0.1 0.4 0.4zm-1.5-9.8c0 0.3-0.1 0.5-0.3 0.5-0.3 0-0.5-0.1-0.5-0.3 0-0.3 0.1-0.5 0.3-0.5 0.3 0 0.5 0.1 0.5 0.3zm-1.5-9.7c0 0.2-0.1 0.4-0.4 0.5-0.2 0-0.4-0.2-0.4-0.4-0.1-0.2 0.1-0.4 0.3-0.4 0.2-0.1 0.4 0.1 0.5 0.3zm-37.3 10c-0.2 0.2-0.4 0.3-0.6 0.1-0.2-0.1-0.2-0.4-0.1-0.5 0.1-0.2 0.4-0.3 0.6-0.1 0.1 0.1 0.2 0.4 0.1 0.5zm5.7-8.5c0.1 0.1 0.2 0.4 0.1 0.6-0.2 0.2-0.4 0.2-0.6 0.1q0 0 0 0c-0.2-0.2-0.2-0.4-0.1-0.6 0.1-0.2 0.4-0.2 0.6-0.1q0 0 0 0zm15.3 12.9c-0.1 0.2-0.3 0.4-0.5 0.3-0.2 0-0.4-0.2-0.3-0.5q0 0 0 0c0-0.2 0.3-0.3 0.5-0.3 0.2 0.1 0.3 0.3 0.3 0.5zm2-10c0.2 0 0.3 0.2 0.3 0.4-0.1 0.3-0.3 0.4-0.5 0.3-0.2 0-0.4-0.2-0.3-0.4q0 0 0-0.1c0.1-0.2 0.3-0.3 0.5-0.2q0 0 0 0zm3.9 13.2c0 0.2-0.2 0.4-0.4 0.3-0.3 0-0.4-0.2-0.4-0.5 0.1-0.2 0.3-0.3 0.5-0.3 0.2 0.1 0.4 0.3 0.3 0.5zm1.9-9.6c0 0.2-0.2 0.3-0.4 0.3-0.3-0.1-0.4-0.3-0.4-0.5 0.1-0.2 0.3-0.4 0.5-0.3 0.2 0 0.4 0.2 0.3 0.5zm1.9-9.7c0 0.3-0.2 0.4-0.4 0.4-0.3-0.1-0.4-0.3-0.4-0.5 0.1-0.2 0.3-0.4 0.5-0.3 0.2 0 0.4 0.2 0.3 0.4zm14.7 4.2q0 0 0 0c0.1 0.2-0.1 0.4-0.3 0.5-0.2 0-0.4-0.1-0.5-0.3 0-0.3 0.1-0.5 0.3-0.5 0.3-0.1 0.5 0.1 0.5 0.3zm-35.1 2.4c0.2 0.1 0.2 0.4 0.1 0.6-0.1 0.1-0.4 0.2-0.6 0.1-0.2-0.2-0.2-0.4-0.1-0.6q0 0 0 0c0.1-0.2 0.4-0.2 0.6-0.1q0 0 0 0zm5.4-8.2c0.2 0.2 0.3 0.4 0.1 0.6-0.1 0.2-0.3 0.2-0.5 0.1-0.2-0.1-0.3-0.4-0.1-0.6q0 0 0 0c0.1-0.2 0.3-0.2 0.5-0.1q0 0 0 0zm11 4c0 0.1-0.2 0.2-0.4 0.1-0.1 0-0.2-0.2-0.1-0.4q0 0 0 0c0.1-0.2 0.2-0.2 0.4-0.1 0.1 0 0.2 0.2 0.1 0.4zm15.4-1.1c-0.1 0-0.3 0.1-0.3 0.3 0 0.2 0.1 0.3 0.3 0.3 0.2 0 0.3-0.1 0.3-0.3 0-0.1-0.1-0.3-0.3-0.3q0 0 0 0z"/>
	<path id="Layer" class="s11" d="m544.5 163c11.2 7.7 20.6 17.7 27.8 29.4 12.1 19.5 8.8 26.7 15.4 38.2 6.5 11.6 15.6 25.7 3.4 40.9 0 0-59.7 5.2-75.8-3.6l13.1-99.5c0 0 7.6 0.9 16.1-5.4z"/>
	<path id="Layer" class="s4" d="m545.4 163.4c6.8 37.7 3.5 60.3-7.9 85.4-11.4 25.2-31 24.8-39.2 22.5-8.2-2.2-13.8-2.2-30.5 1.3-16.7 3.6-28-8-28-8l21.2-55.3c0 0 2.9 1.9 17.8 6.2 15 4.4 19.5 3.9 30.4-10.6 10.9-14.4 19.2-36.5 19.2-36.5"/>
	<path id="Layer" class="s12" d="m541.4 153.9c1.4 5.1 3.2 9.9 3.2 9.9-8.9 8.5-16.2 4.6-16.2 4.6 1-4.2 1.1-8.6 0.2-12.9z"/>
	<path id="Layer" class="s13" d="m527.7 119.8l13.6 3.9c0 0 11 9.8 13.5 16.8 2.6 7-14.4 14.1-14.4 14.1-22.2 7.2-25.8-12.9-25.8-12.9-6.1-3.3-3.9-5.1-1-8.1 2.8-2.9 4.1-8 4.1-8z"/>
	<path id="Layer" class="s14" d="m515.7 146c0.2 0.5 0.6 0.9 1.1 1.2 1.4 0.8 3.1 0.3 3.9-1 0.3-0.5 0.9 0 0.6 0.5-0.3 0.6-0.9 1.1-1.6 1.4-1.8 0.9-4 0-4.9-1.8-0.2-0.5 0.6-0.9 0.9-0.3z"/>
	<path id="Layer" class="s15" d="m568.5 128.8c0 0-1.8 10.2-9.4 17.3-7.5 7.2-17.9 9-21 7.6 0 0-0.6-5.4 3.6-6.1 4.1-0.7 7.9-2.9 6.2-7-1.8-4.1-4.9-0.3-8-2.9-3.2-2.6-4.7-9.2-4.7-9.2-3.5 0.3-7 0.1-10.4-0.7q-1.7-0.1-3.3-0.4c-10.5-2.4-17.1-12.7-14.7-23.2 0.1-0.5 0.8-0.3 0.7 0.2-2.1 9.3 3.3 18.7 12.4 21.7-6.6-3-12.4-9.7-10.3-24z"/>
	<path id="Layer" class="s16" d="m331.9 235.7c0 0-2.4 6.3-13.6 6.1-11.2-0.2-14.5 2.2-24.3 6.8-4.4 2.1-9.2 3.2-14.1 3.4-7.9 0.2-16.3-2.9-21-12.8-7.4-15.3-20.5-44.9-22.3-48.9 4-4.5 8.5-8.7 13.3-12.5 4.6 4.3 8.4 4.9 10.8 4.7q1.8 2 3.1 4.3 0.2 0.5 0.5 0.9c0 0 10.6 31.3 28.8 29.1 11.1-1.4 21.8-4.8 31.6-10.2z"/>
	<path id="Layer" class="s17" d="m328.1 218.8c0-0.1 15.5-4.1 19.1-14.3 3.7-10.2 3.2-8.7 3.3-13.4 0.2-4.7 2.4-5 4.3-1.1 1.9 3.9-1.9 8.7 0.1 8.8 2.1 0.2 4.1-2.6 9-7.5 5.6-5.6 6.5-6.8 8.2-4.6 1.7 2.2 5 12.9-3.2 20-8.1 7.1-8.9 3.4-15.8 9.2-6.9 5.9-10.9 19.8-17.1 24.3-6.2 4.5-3.6-3.1-3.6-3.1z"/>
	<path id="Layer" class="s18" d="m264.3 169.2c-0.7 4-0.9 8.1-0.4 12.1 0 0-5.4 4.4-14-3.5l4.3-14.6z"/>
	<path id="Layer" class="s13" d="m276.4 140.4q0 0.1 0.1 0.2 0 0 0 0 0.3 0.6 0.5 1.2c1.7 4.6 5.9 7.4 6.2 8.7 0.3 1.3-2 2.7-3.2 3.1-1.2 0.4-1.3 6.7-5.4 11.3-3.8 4.3-10.8 5.5-15.9 4-4.1-9.6-5.4-16.7 3.2-23.4 9.4-7.4 9.1-12.1 9.1-12.1 2.3 1.9 4.1 4.3 5.4 7z"/>
	<circle id="Layer" class="s19" cx="233.3" cy="123.8" r="10.2"/>
	<path id="Layer" class="s14" d="m274.2 144.1c0.5 0.4 1 0.5 1.6 0.5 1.6 0 2.8-1.2 2.8-2.8 0.1-0.5 0.9-0.4 0.9 0.2 0 0.7-0.3 1.4-0.7 2-1.2 1.7-3.5 2-5.2 0.8-0.4-0.3 0.1-1 0.6-0.7z"/>
	<path id="Layer" class="s20" d="m258.9 486h23.6c0 0 12.3 11.6 25.5 17.2 13.2 5.7 17.1 13.3 17.1 13.3h-77.2z"/>
	<path id="Layer" class="s21" d="m208.9 486h25.1c0 0 10.8 11.6 24 17.2 13.2 5.7 17.2 13.3 17.2 13.3h-77.3z"/>
	<path id="Layer" class="s22" d="m282.5 486h-23.6c-17.5-17.1-14.1-45.8-15.4-72.9-1.3-27.1 0.6-16.4-2.8-42-4.4-32.3-2.9-26.8-11.3-63.6-2.2-8.9-3.3-18-3.2-27.2q0.1-1.2 0.2-2.3 3.5 0.3 7.2 0.3c12.2 0.1 24.4-1.9 36-5.7 1.4 13.1 4.1 37.4 4.2 37.8 0.9 6.2 1.4 9.8 3.3 20.4q0.2 1.3 0.3 2.6c1.6 14.9 3.6 38.7 4 59 0.4 23.4 1.1 93.6 1.1 93.6z"/>
	<path id="Layer" class="s23" d="m278.4 374.9c-1.9 18.8-44.4 111.1-44.4 111.1h-25.1c0 0 0.8-30.2 3.9-46.1 3.1-15.9 8.8-12.6 7.7-24.9-1.2-12.3 1.5-20.2 6.5-33.2 5-13 16.5-19.1 1.2-62.1-5.1-14-8.4-31.8-7.4-42.2q6.4 0.8 12.8 0.8c12.9 0.1 25.8-2.1 38-6.3l3.7 36.9c0.2 2.3 0.5 4.3 0.8 6.5 2.7 18.4 4.2 40.8 2.3 59.5z"/>
	<path id="Layer" fill-rule="evenodd" class="s10" d="m224.1 288c-0.1 0-0.2 0-0.2-0.1 0-0.1 0-0.2 0.1-0.2 0.1 0 0.2 0 0.2 0.1 0 0.1 0 0.2-0.1 0.2zm-1.5-4.1c0 0 0 0.1-0.1 0.2-0.1 0-0.2 0-0.3-0.1 0-0.1 0.1-0.2 0.1-0.2q0.1 0 0.1 0c0-0.1 0.1 0 0.2 0.1zm-1.8-3.7c-0.1 0-0.2 0-0.2-0.1 0-0.1 0-0.2 0.1-0.3 0.1 0 0.2 0 0.2 0.1 0.1 0.1 0 0.2-0.1 0.3zm9.4 0.7c0.1 0.1 0.1 0.2 0 0.2 0 0.1-0.1 0.1-0.2 0-0.1 0-0.1-0.1 0-0.2 0.1-0.1 0.2-0.1 0.2 0q0 0 0 0zm17.1 7.7c0.1 0.1 0.1 0.3 0 0.5q0 0 0 0c-0.1 0.1-0.3 0.1-0.5 0-0.1-0.1-0.1-0.3 0-0.5q0 0 0 0c0.1-0.1 0.3-0.1 0.5 0q0 0 0 0zm-6.1-4.8c-0.1 0.1-0.3 0.1-0.5 0-0.1-0.1-0.1-0.3 0-0.5 0.1-0.1 0.3-0.1 0.5 0 0.1 0.1 0.1 0.3 0 0.5zm-18.1 25.5c0 0.2-0.1 0.3-0.3 0.3q0 0 0 0c-0.2 0-0.4-0.1-0.4-0.3 0-0.2 0.2-0.3 0.3-0.3 0.2-0.1 0.4 0.1 0.4 0.3zm-0.6-8.1c0 0.2-0.1 0.4-0.3 0.4-0.2 0-0.3-0.1-0.3-0.3-0.1-0.2 0.1-0.4 0.3-0.4 0.1 0 0.3 0.1 0.3 0.3zm-0.5-8q0 0 0 0c0 0.2-0.2 0.3-0.4 0.3q0 0 0 0c-0.2 0-0.3-0.1-0.3-0.3 0-0.2 0.1-0.3 0.3-0.3 0.2 0 0.3 0.1 0.4 0.3zm16.4 8.2c-0.2 0.1-0.4 0-0.4-0.2-0.1-0.2 0-0.4 0.1-0.4 0.2-0.1 0.4 0 0.5 0.1 0.1 0.2 0 0.4-0.2 0.5zm-3.6-7.2c-0.2 0-0.4 0-0.4-0.2-0.1-0.2 0-0.4 0.1-0.4 0.2-0.1 0.4-0.1 0.5 0.1 0.1 0.2 0 0.4-0.2 0.5zm-3.6-7.2c-0.2 0-0.3 0-0.4-0.2-0.1-0.2-0.1-0.4 0.1-0.5 0.2 0 0.4 0 0.5 0.2 0 0.2 0 0.4-0.2 0.5zm-3.4-7.7c0 0.2 0 0.4-0.2 0.4q0 0 0 0c-0.2 0.1-0.4 0-0.4-0.1q0 0 0 0c-0.1-0.2 0-0.4 0.1-0.5 0.2-0.1 0.4 0 0.5 0.2q0 0 0 0zm17.6 18.4c-0.1 0-0.3 0-0.4-0.1-0.1-0.2-0.1-0.4 0.1-0.4 0.1-0.1 0.3-0.1 0.4 0.1 0.1 0.1 0 0.3-0.1 0.4zm-3.7-6.5c0.1 0.1 0 0.3-0.1 0.4-0.2 0-0.3 0-0.4-0.1-0.1-0.2-0.1-0.4 0.1-0.4 0.1-0.1 0.3-0.1 0.4 0q0 0.1 0 0.1zm-3.8-5.9q0 0.1-0.1 0.2c-0.2 0-0.4 0-0.4-0.1q0 0 0 0c-0.1-0.2-0.1-0.4 0.1-0.5q0.1 0 0.2 0 0 0 0.1 0c0.1 0 0.2 0.1 0.2 0.2q0 0.1-0.1 0.2 0 0 0 0zm-3.9-6.4c0.1 0.2 0.1 0.4 0 0.4-0.2 0.1-0.4 0.1-0.5 0 0-0.2 0-0.4 0.1-0.5 0.2 0 0.4 0 0.4 0.1q0 0 0 0zm-13.5 2.5c0 0.2-0.2 0.3-0.4 0.3-0.1-0.1-0.2-0.2-0.2-0.4 0.1-0.2 0.2-0.3 0.4-0.2 0.1 0 0.2 0.2 0.2 0.3zm27.9-1q0 0 0 0c-0.1 0.2-0.3 0.2-0.4 0.1q0 0 0 0c-0.1-0.1-0.2-0.3-0.1-0.4 0.1-0.2 0.3-0.2 0.4-0.1 0.2 0.1 0.2 0.3 0.1 0.4zm-17.3 18.8c0 0.1-0.1 0.3-0.3 0.3-0.1 0.1-0.3-0.1-0.3-0.2 0-0.2 0.1-0.3 0.2-0.4 0.2 0 0.4 0.1 0.4 0.3zm-1.2-7.1c0 0.2-0.1 0.3-0.2 0.3-0.2 0-0.4-0.1-0.4-0.2 0-0.2 0.1-0.3 0.3-0.4 0.1 0 0.3 0.1 0.3 0.3zm-1.5-7.4c0.1 0 0.3 0.1 0.3 0.3 0 0.1-0.1 0.3-0.2 0.3-0.2 0-0.3-0.1-0.4-0.2 0-0.2 0.1-0.3 0.3-0.4q0 0 0 0zm16.5-4.9c0 0.1-0.2 0.1-0.2 0-0.1-0.1-0.1-0.2 0-0.2 0.1-0.1 0.2-0.1 0.2 0 0.1 0 0.1 0.2 0 0.2zm-16.7 6.2c0 0.1 0 0.1-0.1 0.1-0.1 0-0.2 0-0.2-0.1 0-0.1 0.1-0.2 0.2-0.2 0.1 0 0.1 0.1 0.1 0.2zm0-4.5c0.1 0 0.2 0.1 0.2 0.2 0 0.1-0.1 0.2-0.2 0.2-0.1 0-0.2-0.1-0.2-0.2 0-0.1 0.1-0.2 0.2-0.2q0 0 0 0zm8.3 0.9c-0.1 0.1-0.2 0-0.2-0.1-0.1-0.1 0-0.2 0.1-0.2q0 0 0 0c0.1 0 0.2 0 0.2 0.1 0 0.1 0 0.2-0.1 0.2zm-16.2-0.5c0 0.1-0.1 0.1-0.2 0.1-0.1 0-0.1-0.1-0.1-0.2q0 0 0 0c0.1-0.1 0.2-0.1 0.2-0.1 0.1 0 0.2 0.1 0.1 0.2zm1.7-4.1c0.1 0.1 0.1 0.2 0.1 0.3 0 0-0.1 0.1-0.2 0q0 0 0 0c-0.1 0-0.2-0.1-0.1-0.2q0 0 0 0c0-0.1 0.1-0.1 0.2-0.1q0 0 0 0zm26 6.2q0 0 0 0c-0.1 0.1-0.3 0.1-0.3 0q0 0 0 0c-0.1-0.1 0-0.3 0.1-0.3q0 0 0 0c0-0.1 0.2 0 0.2 0.1 0.1 0 0.1 0.2 0 0.2zm-2.6-4.3c0.1 0.1 0 0.2 0 0.3q0 0 0 0c-0.1 0-0.3 0-0.3-0.1-0.1-0.1-0.1-0.2 0-0.3q0 0 0 0c0.1 0 0.3 0 0.3 0.1q0 0 0 0zm-17.6 7.5c0.1 0.1 0.2 0.2 0.2 0.3q0 0 0 0c-0.1 0.1-0.2 0.2-0.3 0.1-0.1 0-0.2-0.1-0.1-0.2 0-0.1 0.1-0.2 0.2-0.2zm1.2-4.4c0 0.1-0.1 0.1-0.2 0.1-0.1 0-0.2-0.1-0.2-0.2 0-0.1 0.1-0.2 0.3-0.2 0.1 0 0.1 0.1 0.1 0.3zm8.1-2.5q0 0 0 0c0 0.1 0 0.2-0.1 0.2-0.1 0.1-0.2 0-0.3-0.1 0-0.1 0.1-0.2 0.2-0.3 0.1 0 0.2 0.1 0.2 0.2zm8.4 25c0.1 0.2-0.1 0.4-0.3 0.4-0.1 0-0.3-0.1-0.3-0.3-0.1-0.2 0.1-0.4 0.3-0.4 0.1 0 0.3 0.1 0.3 0.3zm-1.3-8.2c0.1 0.2 0 0.4-0.2 0.4-0.2 0-0.4-0.1-0.4-0.3-0.1-0.2 0.1-0.4 0.3-0.4 0.1 0 0.3 0.1 0.3 0.3zm-1.2-8.2c0 0.2-0.1 0.3-0.3 0.4q0 0 0 0c-0.2 0-0.4-0.1-0.4-0.3 0-0.2 0.1-0.4 0.3-0.4 0.2 0 0.3 0.1 0.4 0.3zm-1.7-8.5c0.2 0 0.3 0.1 0.4 0.3 0 0.2-0.1 0.3-0.3 0.4-0.2 0-0.4-0.1-0.4-0.3q0 0 0 0c0-0.2 0.1-0.4 0.3-0.4q0 0 0 0zm10.5 1.5c-0.2 0.1-0.4 0-0.5-0.1-0.1-0.2-0.1-0.4 0.1-0.5 0.2-0.1 0.4-0.1 0.5 0.1 0.1 0.2 0 0.4-0.1 0.5zm-22.9 18.7c0.2 0.1 0.3 0.3 0.3 0.5-0.1 0.1-0.2 0.2-0.4 0.2-0.2 0-0.3-0.2-0.3-0.4q0 0 0 0c0.1-0.2 0.3-0.3 0.4-0.3zm2-8c0.2 0 0.3 0.2 0.2 0.4 0 0.2-0.2 0.3-0.4 0.2-0.2 0-0.3-0.2-0.2-0.4q0 0 0 0c0-0.2 0.2-0.3 0.4-0.2q0 0 0 0zm1.9-8.1c0.2 0 0.3 0.2 0.3 0.4q0 0 0 0c0 0.2-0.2 0.3-0.4 0.2-0.2 0-0.3-0.2-0.3-0.4 0.1-0.1 0.3-0.3 0.4-0.2zm1.4 19.2c0 0.2-0.2 0.3-0.4 0.3-0.2 0-0.3-0.2-0.2-0.4 0-0.2 0.2-0.3 0.4-0.3 0.2 0.1 0.3 0.2 0.2 0.4zm1.6-8.1c0 0.2-0.2 0.3-0.4 0.3-0.1-0.1-0.3-0.2-0.2-0.4 0-0.2 0.2-0.3 0.4-0.3 0.2 0 0.3 0.2 0.2 0.4zm1.6-8.1c0 0.2-0.2 0.3-0.4 0.2-0.1 0-0.3-0.2-0.2-0.3 0-0.2 0.2-0.4 0.4-0.3 0.2 0 0.3 0.2 0.2 0.4zm1.4-8.5c0.2 0 0.3 0.2 0.2 0.4q0 0 0 0c0 0.2-0.2 0.3-0.4 0.2-0.1 0-0.3-0.2-0.2-0.4q0 0 0 0c0-0.2 0.2-0.3 0.4-0.2q0 0 0 0zm11 12q0 0 0 0c0.1 0.2 0 0.4-0.2 0.4-0.2 0-0.4-0.1-0.4-0.3-0.1-0.2 0-0.3 0.2-0.4 0.2 0 0.4 0.1 0.4 0.3zm-2-8.4c0.2 0 0.4 0.1 0.4 0.3q0 0 0 0c0 0.2-0.1 0.3-0.3 0.4-0.2 0-0.3-0.1-0.4-0.3 0-0.2 0.1-0.4 0.3-0.4zm-23 3.5c0.1 0.1 0.2 0.3 0.1 0.5-0.1 0.2-0.4 0.2-0.5 0.1-0.2-0.1-0.2-0.3-0.1-0.5q0 0 0 0c0.1-0.2 0.3-0.2 0.5-0.1q0 0 0 0zm4.6-6.9c0.1 0.1 0.2 0.3 0.1 0.5-0.2 0.2-0.4 0.2-0.5 0.1-0.2-0.1-0.2-0.3-0.1-0.5 0.1-0.1 0.3-0.2 0.5-0.1q0 0 0 0zm4.7 10.2c-0.1 0.2-0.3 0.2-0.4 0.2-0.1-0.1-0.2-0.2-0.1-0.4q0 0 0 0c0.1-0.1 0.2-0.2 0.3-0.1 0.2 0.1 0.2 0.2 0.2 0.3zm2.4-5.7c0 0.1-0.2 0.2-0.3 0.1-0.2 0-0.2-0.2-0.2-0.3q0 0 0 0c0.1-0.1 0.3-0.2 0.4-0.1 0.1 0 0.2 0.2 0.1 0.3zm10.5 4.8c-0.1 0-0.2 0.2-0.2 0.3 0 0.1 0.1 0.2 0.2 0.3 0.2 0 0.3-0.2 0.3-0.3 0-0.1-0.1-0.2-0.2-0.3zm0-6.2c0.2 0 0.3 0.1 0.3 0.3 0 0.1-0.1 0.2-0.3 0.2-0.1 0-0.2-0.1-0.2-0.2v-0.1c0-0.1 0.1-0.2 0.2-0.2zm-21.9-2.5c-0.1 0.1-0.3 0.1-0.4 0q0 0 0-0.1c-0.1-0.1-0.1-0.2 0-0.3q0 0 0 0c0.2-0.1 0.3-0.1 0.4 0 0.1 0.1 0.1 0.3 0 0.4zm19.6 0.4c0.1 0.1 0.2 0.2 0.1 0.3-0.1 0.2-0.2 0.2-0.3 0.1q0 0-0.1 0c0-0.1-0.1-0.2 0-0.3q0 0 0 0c0.1-0.1 0.2-0.1 0.3-0.1q0 0 0 0z"/>
	<path id="Layer" class="s24" d="m285.1 266.2c-15.9 8-33.6 12.2-51.5 12.1-19.7-0.1-32.9-5.3-32.9-5.3 0 0-3.7-12.7 4.9-27.7 14.6-25.2 5.2-11.5 16.1-33.3 4.1-7.8 9.1-15.1 14.9-21.6 4-4.6 8.5-8.8 13.3-12.6 7.2 6.6 12.2 4.6 13.6 3.8q0.1 2.6 0.3 5.2c1.8 23.7 10.4 47.6 15.3 62.7q0.4 1.3 0.8 2.5c3 8.8 5.2 14.2 5.2 14.2z"/>
	<path id="Layer" class="s25" d="m348.2 258.2c0 0-15.8 16.8-31.2 13.4-14.1-3.1-15.3 0.6-22 2.1q-0.9 0.2-1.9 0.5c-7.6 2-25.8 2.2-36.1-21.2-10-22.7-13-42.2-7-75.1 8.5 7.7 13.9 3.4 13.9 3.4q0-0.5-0.1-1.1c1.9 3.6 11 20.4 19.8 32.4 9.9 13.5 13 15 26.9 11.2q3.5-0.9 6.4-1.7c7.6-2.2 12.3-3.7 12.3-3.7z"/>
	<path id="Layer" class="s15" d="m271 133.4c0 0 0.6 5.2-7.2 14-1.9 2.8-2.2 6.3-1 9.5 0.8 2 2.1 3.7 3 5.7 1.3 2.7 1.7 5.1 0.5 7.9-0.2 0.4-0.9 0.2-0.7-0.2 2.4-5.8-3.1-9.9-4.2-15.2-0.3-1.5-0.3-3 0.2-4.5-2.8 5.7 2.9 9.1 2.7 19.8 0 0-23.1 9.2-40.9 2.6 0 0 0-9.5 3.7-14.9 3.7-5.4 4.3-11.8 4.4-15 0.2-3 1.1-5.9 2.8-8.4-4.9 1.3-9.9-1.1-12.1-5.5-0.2-0.5 0.5-0.9 0.7-0.4 2.1 4.5 7.4 6.6 12.1 4.9 2.4-3.3 6.5-6.1 12.6-7.4 11.7-2.4 27-1.8 28.9 14.3-1.3-2.8-3.1-5.2-5.5-7.2z"/>
</svg>